<svg width="602" height="616" viewBox="0 0 602 616" fill="none" xmlns="http://www.w3.org/2000/svg">
<path d="M326.165 328.683C329.158 332.151 336.366 336.962 335.951 340.025C335.537 343.098 328.005 360.656 323.921 366.973C319.836 373.301 310.091 377.961 307.068 377.375C301.649 376.323 297.382 375.585 301.346 370.744C307.098 363.718 310.414 348.051 306.249 340.621C302.084 333.182 326.165 328.673 326.165 328.673V328.683Z" fill="#C7D9FD"/>
<mask id="mask0_0_1603" style="mask-type:luminance" maskUnits="userSpaceOnUse" x="299" y="328" width="37" height="50">
<path d="M326.167 328.683C329.16 332.151 336.368 336.962 335.953 340.025C335.539 343.098 328.007 360.656 323.923 366.973C319.838 373.301 310.093 377.961 307.07 377.375C301.651 376.323 297.385 375.585 301.348 370.744C307.1 363.718 310.416 348.051 306.251 340.621C302.086 333.182 326.167 328.673 326.167 328.673V328.683Z" fill="white"/>
</mask>
<g mask="url(#mask0_0_1603)">
<path d="M343.858 333.131C343.07 333.081 332.454 332.141 332.454 332.141C332.283 340.065 329.411 346.06 326.975 351.569C324.538 357.088 322.456 363.577 320.222 366.488C316.501 371.35 304.915 375.596 299.87 374.231C295.473 373.038 297.394 382.661 297.394 382.661L318.826 380.771L340.795 346.909C340.795 346.909 344.637 333.172 343.848 333.121L343.858 333.131Z" fill="#5684F9"/>
</g>
<path d="M227.147 302.27C227.643 306.425 230.656 313.682 228.755 315.866C226.854 318.049 206.402 328.279 200.023 331.19C193.644 334.101 182.513 331.311 180.632 329.936C178.752 328.562 183.513 324.175 190.338 319.485C197.162 314.794 205.108 309.609 205.775 301.805C206.432 293.992 227.158 302.28 227.158 302.28L227.147 302.27Z" fill="#C7D9FD"/>
<mask id="mask1_0_1603" style="mask-type:luminance" maskUnits="userSpaceOnUse" x="180" y="298" width="50" height="35">
<path d="M227.147 302.271C227.642 306.425 230.655 313.683 228.754 315.866C226.854 318.05 206.402 328.279 200.022 331.19C193.643 334.101 182.512 331.312 180.632 329.937C178.751 328.562 183.513 324.175 190.337 319.485C197.161 314.795 205.107 309.609 205.775 301.806C206.432 293.992 227.157 302.281 227.157 302.281L227.147 302.271Z" fill="white"/>
</mask>
<g mask="url(#mask1_0_1603)">
<path d="M230.159 308.032C225.933 314.097 216.572 317.969 211.871 321.062C207.159 324.155 196.473 330.159 193.036 330.038C189.599 329.906 187.425 326.571 183.078 326.651C178.731 326.732 177.295 330.098 177.295 330.098L194.633 339.125L228.906 323.589C228.906 323.589 238.935 314.805 238.358 314.38C237.782 313.956 230.159 308.032 230.159 308.032Z" fill="#5684F9"/>
</g>
<path d="M274.199 159.432C270.499 162.242 243.02 171.471 215.774 190.424C187.335 210.205 192.421 214.774 194.372 224.286C198.365 243.734 212.64 280.043 209.051 299.359C208.323 303.271 227.158 304.909 227.158 302.281C227.158 299.491 227.411 296.661 227.957 288.665C231.778 232.898 218.969 232.989 223.943 229.097C246.993 211.105 302.446 205.707 322.645 184.187C352.247 152.659 294.055 144.36 274.199 159.442V159.432Z" fill="url(#paint0_linear_0_1603)"/>
<path d="M278.485 173.391C277.616 184.662 264.372 215.38 252.452 246.362C240.017 278.698 246.791 279.628 253.747 286.401C267.971 300.259 299.119 322.335 306.247 340.641C307.47 343.785 328.984 331.473 326.163 328.693C324.192 326.752 321.715 327.763 317.681 320.839C289.535 272.542 278.991 279.8 280.932 273.786C289.909 245.958 332.775 210.377 337.415 181.235C344.219 138.528 281.073 139.882 278.495 173.401L278.485 173.391Z" fill="url(#paint1_linear_0_1603)"/>
<path d="M291.091 54.4481L288.432 74.7453L326.486 65.7693L326.89 55.4994C322.694 51.8402 311.301 51.0518 311.301 51.0518L291.091 54.4481Z" fill="#83A8FA"/>
<path d="M316.435 69.0545C289.027 72.8754 282.89 62.4741 282.89 62.4741L271.143 82.1042L263.904 174.028C263.904 174.028 287.126 179.689 318.993 177.162C318.993 177.162 343.843 65.2438 316.445 69.0647L316.435 69.0545Z" fill="#DF6981"/>
<g style="mix-blend-mode:multiply">
<path d="M280.89 71.2784C280.89 71.2784 256.475 172.239 263.906 174.018C269.598 175.383 277.857 176.343 277.857 176.343C277.857 176.343 285.905 152.134 288.523 115.401C290.505 87.5829 299.624 69.6308 299.624 69.6308C299.624 69.6308 293.669 67.1038 290.565 64.8496C288.2 63.1312 280.89 71.2885 280.89 71.2885V71.2784Z" fill="#A9BAD6"/>
</g>
<path d="M291.094 54.4486C291.094 54.4486 289.779 57.0565 280.691 58.5828C272.087 60.0283 268.073 72.2693 265.9 80.8613C260.895 100.673 265.364 132.039 261.239 152.549C258.54 165.932 249.674 171.704 234.337 177.485C218.283 183.54 244.922 198.854 244.922 198.854C244.922 198.854 268.862 177.688 271.026 169.055C279.508 135.213 279.75 101.613 288.435 74.7458C288.93 73.2195 292.832 64.9207 292.832 64.9207C290.123 58.3605 291.094 54.4385 291.094 54.4385V54.4486Z" fill="url(#paint2_linear_0_1603)"/>
<path d="M296.404 76.1404L218.578 46.5032C213.716 44.6534 207.508 45.9371 204.718 49.3638L151.439 114.754C148.639 118.19 150.317 122.466 155.18 124.316L233.005 153.953C237.868 155.803 244.075 154.519 246.866 151.093L300.144 85.7027C302.945 82.2659 301.267 77.9902 296.404 76.1404Z" fill="#83A8FA"/>
<path d="M295.693 74.968L217.868 45.3308C213.005 43.481 206.797 44.7647 204.007 48.1914L150.728 113.581C147.928 117.018 149.606 121.294 154.469 123.144L232.294 152.781C237.157 154.631 243.365 153.347 246.155 149.92L299.434 84.5303C302.234 81.0936 300.556 76.8178 295.693 74.968Z" fill="#C7D9FD"/>
<path d="M177.529 73.492C174.921 73.492 170.836 79.8501 170.836 81.6898C170.836 83.5295 171.241 88.1287 171.241 88.1287C172.909 93.2434 178.419 90.3626 178.419 87.037V82.6298C178.419 82.6298 179.915 86.4608 181.027 86.0565C182.139 85.6522 182.119 84.8031 181.189 82.1446C180.269 79.4761 179.824 77.8386 179.824 77.8386L182.412 74.8566C182.412 74.8566 180.137 73.4819 177.529 73.4819V73.492Z" fill="url(#paint3_linear_0_1603)"/>
<path d="M181.027 65.9717C179.803 67.1947 183.413 73.4517 183.413 73.4517L185.657 70.6922C182.088 66.3558 182.24 64.7486 181.017 65.9717H181.027Z" fill="url(#paint4_linear_0_1603)"/>
<g style="mix-blend-mode:multiply">
<path d="M295.985 150.537C294.215 148.667 296.521 146.847 295.985 150.537V150.537Z" fill="#C7D9FD"/>
</g>
<path d="M343.928 75.5745C336.558 70.6215 335.931 69.5804 334.031 67.0432C332.13 64.4959 326.893 55.5098 326.893 55.5098C326.893 55.5098 320.837 64.0006 305.683 67.0937C305.683 67.0937 308.18 77.859 307.583 82.3874C306.724 88.9881 307.31 67.2353 284.199 233.444C284.199 233.444 318.947 242.117 325.66 231.049C345.95 197.601 333.869 167.519 346.193 122.557C348.427 114.42 350.793 80.2041 343.918 75.5846L343.928 75.5745Z" fill="url(#paint5_linear_0_1603)"/>
<g style="mix-blend-mode:multiply">
<path d="M334.689 93.0919C319.291 99.9655 313.994 132.959 312.063 137.255C310.142 141.551 308.11 142.481 307.979 145.301C307.847 148.111 308.494 150.294 305.552 149.597C301.609 148.667 303.631 153.994 297.98 151.78C297.03 151.406 296.393 150.971 295.988 150.537C295.907 151.113 295.756 151.831 295.503 152.7C293.542 159.472 288.537 202.553 288.537 202.553C325.742 210.67 322.688 169.176 323.386 165.659C324.599 159.483 332.798 149.243 332.798 149.243C332.798 149.243 339.885 133.99 345.82 119.07C352.26 102.867 336.701 92.2125 334.709 93.102L334.689 93.0919Z" fill="#C7D9FD"/>
</g>
<path d="M304.924 66.8413C304.924 66.8413 306.987 78.7184 307.229 79.992C307.472 81.2656 307.128 83.4793 306.491 85.5414C305.855 87.6035 297.463 136.386 297.463 136.386C297.463 136.386 300.213 150.8 301.194 147.07C302.175 143.34 311.203 101.138 312.78 92.9002C314.347 84.6519 317.299 85.8345 311.597 65.6182L304.924 66.8413Z" fill="white"/>
<path d="M272.641 116.25C268.678 112.328 267.131 114.582 269.598 117.018C272.065 119.454 271.559 120.849 271.094 121.021C270.629 121.192 266.221 118.483 264.442 116.725C262.663 114.966 260.044 113.733 258.073 113.46C255.505 113.096 253.473 115.865 257.395 115.967C259.336 116.017 262.218 118.514 262.4 119.009C259.114 117.938 256.182 117.584 253.058 118.746C249.934 119.909 244.889 124.437 252.027 125.013C259.165 125.59 261.166 131.452 273.136 136.951C273.136 136.951 282.791 132.504 280.001 129.744C277.211 126.984 276.604 120.161 272.641 116.25Z" fill="url(#paint6_linear_0_1603)"/>
<path style="mix-blend-mode:multiply" d="M256.819 126.449C263.118 131.645 270.801 136.163 274.056 137.386C274.056 137.386 278.009 134.869 279.728 132.544C270.963 125.549 267.728 126.57 263.916 126.156C259.953 125.721 257.921 125.145 256.819 126.459V126.449Z" fill="url(#paint7_linear_0_1603)"/>
<path d="M333.896 79.3247C318.499 86.1983 313.201 119.191 311.27 123.487C309.339 127.783 307.317 128.713 307.186 131.533C307.054 134.344 307.702 136.527 304.76 135.829C300.817 134.9 283.276 129.269 277.615 127.056C271.963 124.842 267.343 135.88 273.318 141.268C279.293 146.665 296.53 153.428 305.487 155.621C314.445 157.815 317.67 158.158 318.357 154.641C319.57 148.465 324.049 150.729 323.776 147.302C323.493 143.876 323.635 143.249 325.919 141.51C328.204 139.772 331.985 135.466 331.985 135.466C331.985 135.466 339.072 120.212 345.007 105.293C351.447 89.0892 335.888 78.4352 333.896 79.3247Z" fill="url(#paint8_linear_0_1603)"/>
<path d="M311.279 123.487C309.358 127.783 307.326 128.713 307.195 131.533C307.063 134.343 307.71 136.527 304.768 135.829C300.826 134.899 283.285 129.269 277.624 127.055C275.854 126.358 274.176 126.975 272.902 128.299C278.736 130.634 294.78 137.113 300.199 139.883C306.871 143.299 311.239 141.035 313.544 138.72C315.849 136.416 316.091 137.052 318.255 120.566C320.418 104.08 326.11 104.666 324.048 88.6343C316.031 101.017 312.705 120.263 311.269 123.477L311.279 123.487Z" fill="white"/>
<path style="mix-blend-mode:multiply" d="M312.344 37.4263C312.061 38.4776 311.788 40.8227 313.233 41.7122C316.509 43.7237 317.106 36.9108 316.448 35.2632C315.791 33.6155 313.436 33.3931 312.344 37.4263Z" fill="url(#paint9_linear_0_1603)"/>
<path d="M276.233 28.0357C266.912 16.664 278.296 10.1947 287.991 4.01861C291.833 1.57243 307.372 -4.56323 312.275 5.91895C316.986 5.70668 320.464 8.42578 321.343 18.8271C322.435 31.8161 317.471 36.7085 315.298 47.1907L284.089 27.3584L276.233 28.0357Z" fill="url(#paint10_linear_0_1603)"/>
<g style="mix-blend-mode:multiply">
<path d="M308.725 37.75L310.221 37.5478C307.108 31.5031 299.424 21.1018 301.911 14.1878C302.417 12.7625 305.975 8.64849 310.13 6.1922C310.676 4.585 309.15 2.89693 305.035 4.65575C299.849 6.86945 299.121 10.3669 293.752 16.8159C288.859 22.6888 287.424 21.0714 279.316 23.922C277.698 24.488 276.394 26.2367 275.696 27.3486C275.868 27.5811 276.04 27.8035 276.232 28.036L284.087 27.3587L291.66 32.1702L308.735 37.75H308.725Z" fill="#9EB4E2"/>
</g>
<path d="M304.54 39.3466C309.16 37.4564 310.939 36.8196 310.939 36.8196C311.617 35.3235 311.92 31.7857 315.094 31.2904C321.322 30.3099 319.108 44.0368 316.156 43.5617C312.355 42.9552 316.227 59.7045 323.698 66.1131C328.328 70.0957 302.083 72.7036 296.169 70.126C285.928 65.6683 300.637 52.1941 294.642 45.3711C292.428 42.8542 299.05 38.4268 304.55 39.3466H304.54Z" fill="url(#paint11_linear_0_1603)"/>
<path style="mix-blend-mode:multiply" d="M323.71 66.1131C316.238 59.6944 312.366 42.9553 316.168 43.5618C319.12 44.0267 321.324 30.2998 315.106 31.2904C311.932 31.7958 311.628 35.3337 310.951 36.8196C310.951 36.8196 309.162 37.4564 304.551 39.3466C303.834 39.2253 303.096 39.195 302.368 39.2456C297.192 45.0072 294.371 50.5667 300.649 52.1942C309.344 54.4483 311.123 64.0713 311.264 70.8539C319.11 70.1665 326.328 68.3571 323.71 66.1131Z" fill="url(#paint12_linear_0_1603)"/>
<path style="mix-blend-mode:multiply" d="M302.598 66.5682C302.598 66.5682 294.005 64.5769 295.531 53.4478C293.782 59.8867 289.203 67.0938 296.168 70.1263C297.412 70.6721 299.555 70.9753 302.123 71.0966L302.598 66.5682Z" fill="url(#paint13_linear_0_1603)"/>
<path d="M303.984 33.1606C307.24 40.3374 314.62 42.2782 310.141 47.9792C303.55 56.3589 301.447 56.3892 296.382 56.7531C291.428 57.117 285.231 47.1705 284.533 44.6132C283.148 39.5085 283.694 36.7591 283.148 34.4544C282.531 31.8667 281.349 31.6747 281.632 26.5397C281.632 26.5397 286.171 26.3275 290.65 23.4365C293.329 21.708 296.159 22.2235 299.061 24.5181C302.023 26.8531 301.659 28.0459 303.984 33.1707V33.1606Z" fill="url(#paint14_linear_0_1603)"/>
<path style="mix-blend-mode:multiply" d="M299.052 24.5078C296.15 22.2234 293.32 21.6978 290.641 23.4263C287.871 25.2154 285.08 25.9836 283.351 26.297C281.693 36.2536 300.548 30.219 298.9 34.4442C294.644 45.361 300.72 46.3314 299.214 50.1826C298.193 52.8108 296.757 54.9436 295.251 56.662C295.625 56.7428 295.999 56.7732 296.363 56.753C301.428 56.3891 303.541 56.3688 310.122 47.979C314.601 42.278 307.221 40.3373 303.965 33.1605C301.64 28.0255 302.004 26.8428 299.042 24.5078H299.052Z" fill="url(#paint15_linear_0_1603)"/>
<path style="mix-blend-mode:multiply" d="M312.828 37.4263C312.545 38.4776 312.272 40.8227 313.718 41.7122C316.993 43.7237 317.59 36.9108 316.932 35.2632C316.275 33.6155 313.92 33.3931 312.828 37.4263Z" fill="url(#paint16_linear_0_1603)"/>
<path d="M232.198 65.8906L235.959 70.4494L234.251 86.0261L230.49 81.4774L232.198 65.8906Z" fill="#1F2434"/>
<path d="M256.574 75.3415L216.761 102.159L221.402 61.7056L232.199 65.8904L230.49 81.4772L245.776 71.1567L256.574 75.3415Z" fill="#2D3D4F"/>
<path d="M268.252 79.8599L202.084 124.285L209.868 57.2378L221.403 61.7056L216.763 102.159L256.576 75.3416L268.252 79.8599Z" fill="#5CBE8A"/>
<path d="M268.252 79.8599L272.013 84.4187L205.844 128.844L202.084 124.285L268.252 79.8599Z" fill="#2C805C"/>
<path d="M400.762 543C400.246 547.943 396.789 556.686 399.063 559.173C401.338 561.66 414.885 569.14 422.447 572.253C429.999 575.366 438.623 574.305 440.968 571.909C445.144 567.624 448.5 564.328 441.969 562.458C432.496 559.749 423.994 553.098 423.115 543.889C422.235 534.681 400.782 543 400.782 543H400.762Z" fill="white"/>
<path d="M445.469 564.611C445.469 564.611 445.439 564.642 445.429 564.652C441.779 568.998 431.761 571.566 425.442 569.524C421.651 568.301 419.801 567.32 414.22 563.914C409.206 560.851 403.635 557.647 398.883 551.976C398.236 555.1 397.933 557.92 399.075 559.163C401.35 561.65 414.897 569.13 422.459 572.243C430.012 575.356 438.635 574.295 440.981 571.899C443.852 568.958 446.339 566.471 445.48 564.611H445.469Z" fill="url(#paint17_linear_0_1603)"/>
<path d="M403.189 544.739C403.108 546.771 420.214 552.017 420.507 547.822C420.831 543.061 422.428 540.19 422.428 540.19L404.483 539.301C402.825 543.415 403.27 542.697 403.189 544.729V544.739Z" fill="#77A9E5"/>
<path d="M436.037 355.968C436.037 355.968 398.418 321.408 399.267 345.254C400.117 369.099 421.196 440.584 419.891 452.835C419.184 459.466 417.374 467.108 413.219 487.991C412.916 488.325 411.834 501.354 409.104 504.933C407.133 507.51 407.638 509.724 408.124 511.847C408.619 513.969 407.022 515.597 404.818 519.094C402.654 522.541 404.636 527.959 404.484 531.649C404.302 536.036 404.423 539.22 404.464 539.301C406.385 543.435 424.532 546.093 426.432 542.191C428.626 537.693 432.923 525.351 438.231 505.084C446.996 471.576 453.881 451.551 452.708 440.22C451.879 432.255 438.584 383.523 436.027 355.968H436.037Z" fill="#FF6984"/>
<path d="M440.991 442.373C441.729 435.298 427.878 370.484 426.908 347.892L397.609 353.775C403.888 384.413 420.862 443.768 419.891 452.835C419.184 459.466 417.374 467.108 413.219 487.992C412.916 488.325 411.834 501.355 409.104 504.933C407.133 507.51 407.638 509.724 408.124 511.847C408.619 513.97 407.022 515.597 404.818 519.094C402.654 522.541 404.636 527.959 404.484 531.649C404.302 536.036 404.423 539.22 404.464 539.301C405.95 542.515 417.233 544.83 423.086 543.88C430.486 518.589 443.296 463.661 444.388 459.668C445.732 454.726 440.242 449.439 440.97 442.373H440.991Z" fill="url(#paint18_linear_0_1603)"/>
<path d="M300.74 462.448C296.342 463.742 287.678 463.873 286.354 466.684C285.029 469.494 281.835 488.345 281.835 495.876C281.835 503.407 287.496 512.615 290.357 513.767C295.483 515.83 299.466 517.518 298.769 511.301C297.748 502.274 303.46 487.294 311.002 483.301C318.543 479.309 300.74 462.448 300.74 462.448Z" fill="white"/>
<path d="M298.16 515.041C298.16 515.041 298.13 515.031 298.11 515.021C293.126 513.434 285.685 503.568 285.2 497.463C284.906 493.804 286.676 487.213 287.626 481.259C288.475 475.902 289.254 470.029 292.408 463.995C289.517 464.54 287.009 465.278 286.342 466.683C285.018 469.493 281.823 488.345 281.823 495.876C281.823 503.406 287.484 512.615 290.346 513.767C293.864 515.182 296.856 516.426 298.15 515.041H298.16Z" fill="url(#paint19_linear_0_1603)"/>
<path d="M297.393 464.177C295.876 464.904 300.466 478.601 303.408 480.976C306.36 483.352 314.175 479.521 314.175 479.521L303.904 462.974C300.153 463.267 298.909 463.449 297.393 464.177Z" fill="#77A9E5"/>
<path d="M370.797 331.648C358.878 358.667 375.61 411.857 368.058 440.129C366.43 446.235 361.496 434.408 311.615 459.749C304.457 463.388 302.92 461.185 300.211 461.751C296.339 462.559 307.742 484.585 310.472 482.604C326.405 471.071 364.58 469.413 384.062 465.481C393.585 463.56 399.792 466.451 406.879 432.518C413.673 400 420.518 375.669 421.65 371.161C427.766 346.982 388.257 292.044 370.787 331.648H370.797Z" fill="url(#paint20_linear_0_1603)"/>
<path d="M405.232 383.17C404.1 398.13 400.481 428.111 396.659 438.755C391.988 451.774 394.303 448.863 384.497 460.134C379.341 466.067 365.116 470.09 384.598 466.158C394.122 464.237 400.329 467.128 407.416 433.195C414.21 400.677 414.22 401.749 414.806 397.139C415.999 387.88 406.658 364.207 405.232 383.17Z" fill="#FF6984"/>
<path d="M419.296 307.186C407.073 308.712 393.02 310.178 385.761 311.199C385.761 311.199 382.314 297.32 379.433 287.384C376.794 278.267 380.868 268.714 375.56 262.73C370.243 256.746 367.26 251.015 361.255 258.879C355.25 266.753 362.59 282.633 367.402 293.51C372.214 304.386 373.822 315.626 376.844 321.044C380.727 328.029 382.991 329.06 390.563 326.462C399.319 323.46 413.25 322.166 424.037 315.616C427.757 313.362 424.158 306.569 419.285 307.176L419.296 307.186Z" fill="url(#paint21_linear_0_1603)"/>
<path d="M383.879 226.756L382.756 236.975L419.091 251.501L419.475 231.011L399.973 224.653C399.973 224.653 388.58 223.754 383.889 226.746L383.879 226.756Z" fill="#29368B"/>
<path d="M438.202 207.095C449.11 197.22 438.808 189.123 430.124 181.582C426.687 178.59 412.209 170.221 405.81 179.864C401.18 178.954 397.328 181.127 394.922 191.296C391.919 203.992 396.104 209.562 396.701 220.266L430.528 205.266L438.202 207.105V207.095Z" fill="#FF6984"/>
<g style="mix-blend-mode:multiply">
<path d="M435.757 202.567C428.154 198.544 426.496 199.929 422.523 193.389C418.166 186.212 417.963 182.644 413.161 179.682C409.35 177.327 407.581 178.762 407.884 180.44C411.645 183.483 414.546 188.082 414.84 189.568C416.265 196.775 407.136 205.933 403.153 211.452L404.608 214.302L419.369 210.199L430.54 205.246L438.213 207.085C438.436 206.883 438.638 206.691 438.84 206.489C438.315 205.286 437.283 203.365 435.767 202.557L435.757 202.567Z" fill="#B7CFF5"/>
</g>
<path d="M408.5 214.09C404.214 211.533 402.536 210.643 402.536 210.643C402.081 209.066 402.313 205.518 399.24 204.548C393.224 202.648 393.376 216.567 396.369 216.536C400.22 216.506 393.912 232.497 385.561 237.743C380.385 240.998 405.983 247.467 412.221 245.799C423.018 242.898 410.452 227.382 417.407 221.52C419.965 219.356 414.071 213.989 408.5 214.09Z" fill="url(#paint22_linear_0_1603)"/>
<path style="mix-blend-mode:multiply" d="M410.686 214.312C409.969 214.161 409.241 214.08 408.513 214.09C404.226 211.533 402.548 210.643 402.548 210.643C402.093 209.066 402.326 205.518 399.252 204.548C393.237 202.648 393.388 216.567 396.381 216.536C400.233 216.506 393.924 232.497 385.574 237.743C382.652 239.573 389.527 242.433 397.19 244.283C398.332 237.592 401.527 228.332 410.464 227.382C416.924 226.695 414.963 220.772 410.686 214.312Z" fill="url(#paint23_linear_0_1603)"/>
<path style="mix-blend-mode:multiply" d="M406.389 241.321L406.186 245.87C408.744 246.133 410.918 246.143 412.232 245.789C419.582 243.818 416.114 236.015 415.336 229.374C415.204 240.624 406.399 241.321 406.399 241.321H406.389Z" fill="url(#paint24_linear_0_1603)"/>
<path d="M409.97 208.046C405.684 214.666 398.091 215.495 401.68 221.803C406.958 231.082 409.04 231.416 414.004 232.528C418.857 233.619 426.459 224.694 427.531 222.268C429.664 217.426 429.523 214.616 430.412 212.412C431.403 209.936 432.606 209.926 433.092 204.801C433.092 204.801 428.633 203.921 424.619 200.394C422.223 198.281 419.342 198.382 416.137 200.212C412.862 202.082 413.044 203.315 409.98 208.046H409.97Z" fill="url(#paint25_linear_0_1603)"/>
<path style="mix-blend-mode:multiply" d="M431.415 204.316C429.757 203.739 427.098 202.577 424.621 200.394C422.225 198.281 419.344 198.382 416.139 200.212C412.863 202.082 413.045 203.315 409.982 208.046C405.695 214.666 398.103 215.495 401.692 221.803C406.969 231.082 409.052 231.406 414.016 232.528C414.37 232.608 414.744 232.629 415.128 232.608C413.895 230.688 412.793 228.363 412.166 225.614C411.246 221.58 417.403 221.52 414.815 210.087C413.814 205.66 431.577 214.424 431.415 204.326V204.316Z" fill="url(#paint26_linear_0_1603)"/>
<path style="mix-blend-mode:multiply" d="M397.329 208.278C396.44 209.814 396.015 216.647 399.564 215.141C401.131 214.474 401.201 212.109 401.08 211.027C400.595 206.873 398.229 206.741 397.339 208.278H397.329Z" fill="url(#paint27_linear_0_1603)"/>
<path d="M392.226 241.715C365.668 233.872 375.555 356.039 375.555 356.039C406.724 363.266 432.908 355.089 432.908 355.089L435.122 261.335L426.397 240.169C426.397 240.169 418.775 249.559 392.216 241.715H392.226Z" fill="white"/>
<g style="mix-blend-mode:multiply">
<path d="M418.462 241.382C415.055 243.151 408.786 244.768 408.786 244.768C408.786 244.768 410.455 278.994 409.757 290.71C409.059 302.425 415.752 330.9 414.539 344.384C413.326 357.869 429.168 378.6 429.168 378.6C429.168 378.6 435.689 375.699 442.149 371.606C448.609 367.522 427.095 249.185 427.095 249.185C427.095 249.185 421.07 240.027 418.472 241.382H418.462Z" fill="#72ABFE"/>
</g>
<path d="M442.718 332.538C441.666 311.624 442.505 281.249 440.494 260.891C439.624 252.057 439.766 245.223 431.466 242.525C422.7 239.664 419.475 231.021 419.475 231.021C419.475 231.021 419.849 235.045 416.2 241.14C416.2 241.14 418.838 249.934 419.101 251.511C423.721 279.389 418.97 312.686 422.357 347.437C423.216 356.302 437.238 389.669 437.238 389.669C437.238 389.669 457.508 388.345 453.434 376.003C448.288 360.426 443.415 346.204 442.728 332.558L442.718 332.538Z" fill="url(#paint28_linear_0_1603)"/>
<path d="M492.056 284.746C486.637 287.485 469.693 294.753 465.851 296.057C462.99 297.027 463.425 294.793 463.03 292.003C462.636 289.214 460.523 288.476 458.198 284.382C455.873 280.278 447.461 247.912 431.468 242.524C429.395 241.826 414.898 253.916 422.854 269.452C430.174 283.755 438.686 298.281 438.686 298.281C438.686 298.281 442.861 302.213 445.298 303.729C447.734 305.245 447.936 305.852 447.987 309.299C448.038 312.735 452.284 310.067 454.083 316.101C455.104 319.538 458.279 318.891 466.993 315.859C475.708 312.826 492.238 304.457 497.677 298.513C503.116 292.569 497.475 282.017 492.046 284.756L492.056 284.746Z" fill="url(#paint29_linear_0_1603)"/>
<path opacity="0.5" d="M492.057 284.746C486.638 287.485 469.694 294.753 465.852 296.057C462.991 297.027 463.426 294.793 463.031 292.003C462.637 289.213 460.524 288.476 458.199 284.382C456.46 281.319 445.582 246.072 435.088 244.576C434.552 260.739 445.531 269.391 449.242 285.605C452.952 301.828 454.852 297.694 457.37 299.776C459.887 301.859 464.457 303.698 470.775 299.665C475.911 296.39 491.288 288.415 496.869 285.534C495.474 284.331 493.755 283.876 492.047 284.736L492.057 284.746Z" fill="#3486FE"/>
<path d="M509.343 279.035C509.596 278.57 513.094 277.751 515.014 277.983C518.917 278.459 516.854 275.274 514.256 275.244C512.254 275.224 509.676 274.981 507.654 276.457C505.633 277.933 500.871 279.965 500.426 279.722C499.991 279.479 499.698 278.024 502.498 275.982C505.299 273.93 504.106 271.474 499.607 274.769C495.108 278.064 493.491 284.716 490.316 287.04C487.142 289.355 496.048 295.198 496.048 295.198C508.716 291.528 503.691 288.931 510.637 287.182C517.451 285.464 517.977 283.927 518.33 281.552C518.826 278.256 512.75 278.448 509.333 279.025L509.343 279.035Z" fill="url(#paint30_linear_0_1603)"/>
<path d="M403.156 241.362C388.608 236.055 383.877 226.755 383.877 226.755C383.877 226.755 377.366 234.882 375.102 237.116C372.847 239.35 372.069 240.28 364.041 244.101C356.55 247.659 353.83 281.865 354.831 290.255C360.361 336.581 360.27 322.065 335.228 374.486C329.638 386.182 369.329 404.639 369.329 404.639C404.41 366.309 398.87 262.882 399.001 256.221C399.082 251.652 403.156 241.362 403.156 241.362Z" fill="url(#paint31_linear_0_1603)"/>
<g style="mix-blend-mode:multiply">
<path d="M363.144 285.434C361.395 309.178 366.288 324.896 367.512 333.104C368.735 341.312 378.45 350.722 372.748 348.64C367.047 346.568 357.129 340.786 357.129 340.786C357.129 340.786 348.303 360.861 347.433 365.147L357.129 345.85C357.129 345.85 373.8 351.278 378.865 353.118C383.93 354.958 392.301 340.26 392.301 340.26V318.407L376.428 275.477L363.154 285.434H363.144Z" fill="#A5BCD9"/>
</g>
<path d="M405.255 325.704C404.244 321.914 398.764 323.632 398.218 321.368C397.672 319.104 395.822 317.254 393.446 315.445C391.071 313.635 391.455 311.472 391.212 308.713C390.97 305.953 382.346 250.287 372.155 246.011C361.964 241.726 360.054 262.498 357.516 270.665C353.685 282.967 370.578 324.855 375.34 330.92C380.102 336.985 417.033 353.866 424.625 357.687C432.218 361.508 432.359 362.074 436.029 363.216C439.699 364.358 447.787 357.181 441.822 351.662C435.857 346.153 406.276 329.485 405.265 325.694L405.255 325.704Z" fill="url(#paint32_linear_0_1603)"/>
<path d="M459.522 361.75C455.104 361.962 456.095 359.041 460.614 356.666C465.133 354.29 461.372 352.087 457.217 354.27C453.062 356.453 451.515 355.422 448.462 355.018C445.409 354.614 440.334 353.279 440.334 353.279C436.219 357.484 436.087 361.962 438.918 364.115C441.739 366.268 447.956 369.331 450.049 370.928C452.152 372.525 464.173 372.859 467.206 371.272C470.238 369.675 471.189 369.321 471.634 366.915C472.21 363.772 463.95 361.538 459.522 361.75Z" fill="url(#paint33_linear_0_1603)"/>
<path opacity="0.5" d="M405.252 325.705C404.241 321.914 398.761 323.633 398.215 321.368C397.669 319.104 395.819 317.254 393.443 315.445C391.067 313.636 391.442 311.472 391.209 308.713C391.067 307.065 387.944 286.606 383.273 269.453L387.398 316.537C387.398 316.537 390.137 321.55 394.303 325.826C398.458 330.102 404.119 328.798 416.443 339.462C426.169 347.872 435.419 351.612 441.617 351.491C435.237 345.81 406.252 329.445 405.252 325.695V325.705Z" fill="#3486FE"/>
<path d="M451.081 355.958C451.081 355.958 448.028 362.792 448.857 361.619C449.686 360.436 463.355 357.556 462.718 354.533C462.071 351.501 458.532 354.068 451.081 355.969V355.958Z" fill="url(#paint34_linear_0_1603)"/>
<path d="M552.913 365.035L508.298 345.567C506.175 344.637 502.171 344.647 499.371 345.597L451.278 361.861C450.055 362.276 449.095 361.083 448.761 361.609C448.65 361.791 448.761 363.681 448.761 363.853C448.741 364.368 449.165 364.853 450.055 365.248L494.67 384.716C496.793 385.646 500.796 385.636 503.597 384.686L551.689 368.422C554.49 367.471 555.036 365.955 552.902 365.025L552.913 365.035Z" fill="url(#paint35_linear_0_1603)"/>
<path d="M552.912 362.801L508.297 343.333C506.174 342.403 502.171 342.413 499.37 343.363L451.278 359.627C448.477 360.578 447.931 362.094 450.064 363.024L494.679 382.492C496.802 383.422 500.806 383.412 503.606 382.462L551.699 366.198C554.499 365.248 555.045 363.731 552.912 362.801Z" fill="#3486FE"/>
<path d="M505.185 356.231L490.789 349.954C490.102 349.651 488.818 349.661 487.908 349.954L472.389 355.2C471.489 355.504 471.307 355.999 471.995 356.292L486.391 362.569C487.079 362.872 488.363 362.862 489.273 362.569L504.791 357.323C505.691 357.02 505.873 356.524 505.185 356.231Z" fill="url(#paint36_linear_0_1603)"/>
<path d="M599.064 306.853L532.198 331.163C530.014 331.951 527.132 334.721 525.747 337.329L502.111 382.25C500.736 384.868 501.383 386.343 503.566 385.545L570.433 361.235C572.617 360.446 575.498 357.677 576.883 355.069L600.52 310.148C601.895 307.53 601.248 306.054 599.064 306.853Z" fill="url(#paint37_linear_0_1603)"/>
<path d="M599.821 307.449L532.955 331.759C530.771 332.547 527.89 335.317 526.505 337.925L502.868 382.846C501.493 385.464 502.14 386.94 504.324 386.141L571.19 361.831C573.374 361.042 576.255 358.273 577.64 355.665L601.277 310.744C602.652 308.126 602.005 306.65 599.821 307.449Z" fill="url(#paint38_linear_0_1603)"/>
<path d="M458.241 107.62L444.926 147.446C444.653 148.265 443.592 148.467 443.036 147.8L415.951 115.434C415.345 114.706 415.85 113.604 416.791 113.594L437.485 113.503C437.617 113.503 437.748 113.483 437.87 113.432L456.805 106.195C457.675 105.861 458.544 106.71 458.251 107.6L458.241 107.62Z" fill="url(#paint39_linear_0_1603)"/>
<path d="M443.531 102.637L429.276 108.277C429.043 108.368 428.902 108.611 428.932 108.863L430.873 124.44C430.893 124.612 430.995 124.764 431.146 124.855C431.298 124.946 431.48 124.956 431.642 124.885L435.584 123.167C435.948 123.005 436.363 123.278 436.353 123.682L436.242 129.919C436.242 130.333 436.676 130.616 437.05 130.424L439.456 129.181C439.831 128.989 440.275 129.262 440.265 129.686L440.063 139.481C440.053 140.098 440.892 140.27 441.125 139.704L441.276 139.33L448.869 112.988C449 112.543 448.565 112.149 448.141 112.32L444.056 113.928C443.672 114.079 443.268 113.766 443.308 113.362L444.299 103.233C444.34 102.819 443.925 102.515 443.541 102.667L443.531 102.637Z" fill="url(#paint40_linear_0_1603)"/>
<path d="M529.543 146.091C536.145 142.847 536.408 136.388 533.971 127.715C531.535 119.042 522.972 113.583 520.727 114.685C518.483 115.787 514.51 127.411 516.946 136.084C519.383 144.757 522.941 149.336 529.543 146.081V146.091Z" fill="url(#paint41_linear_0_1603)"/>
<path d="M533.772 148.134C535.763 155.219 541.496 154.623 549.573 150.64C557.651 146.668 563.717 136.145 563.04 133.729C562.362 131.324 552.525 128.392 544.448 132.375C536.37 136.347 531.79 141.048 533.772 148.134Z" fill="url(#paint42_linear_0_1603)"/>
<path d="M532.688 144.242C538.754 146.951 542.99 141.957 546.983 133.022C550.977 124.086 549.218 112.785 547.155 111.865C545.093 110.945 535.337 117.101 531.343 126.047C527.35 134.993 526.632 141.543 532.688 144.252V144.242Z" fill="url(#paint43_linear_0_1603)"/>
<path d="M517.624 184.402C531.02 188.516 543.051 188.041 548.358 170.766C553.656 153.491 547.145 135.984 533.75 131.88C520.354 127.776 505.149 138.612 499.851 155.887C494.554 173.161 504.239 180.298 517.634 184.412L517.624 184.402Z" fill="url(#paint44_linear_0_1603)"/>
<path d="M542.344 164.498C542.598 163.67 541.108 162.479 539.015 161.837C536.923 161.195 535.021 161.345 534.767 162.173C534.513 163 536.004 164.191 538.096 164.833C540.188 165.475 542.091 165.325 542.344 164.498Z" fill="#EAADCC"/>
<path d="M516.998 155.32C517.366 154.495 516.202 153.172 514.397 152.366C512.593 151.561 510.831 151.577 510.462 152.403C510.093 153.229 511.257 154.551 513.062 155.357C514.867 156.162 516.629 156.146 516.998 155.32Z" fill="#EAADCC"/>
<path d="M528.828 158.909C527.544 159.414 526.25 159.394 524.956 158.828C523.651 158.262 522.822 157.403 522.469 156.25" stroke="black" stroke-linecap="round" stroke-linejoin="round"/>
<path d="M518.1 146.678C519.05 146.93 519.818 147.547 520.273 148.335C520.728 149.124 520.89 150.074 520.637 151.014C520.384 151.954 519.768 152.702 518.979 153.157C518.191 153.602 517.22 153.753 516.27 153.501C515.319 153.248 514.551 152.631 514.096 151.843C513.641 151.055 513.479 150.104 513.732 149.164C513.985 148.224 514.601 147.476 515.39 147.021C516.179 146.577 517.149 146.425 518.1 146.678Z" fill="black"/>
<path d="M517.414 149.549C517.576 148.932 517.212 148.305 516.584 148.133C515.968 147.962 515.33 148.325 515.158 148.942C514.997 149.559 515.361 150.185 515.988 150.357C516.605 150.529 517.242 150.165 517.414 149.549Z" fill="white"/>
<path d="M538.552 153.875C539.502 154.128 540.271 154.744 540.726 155.533C541.181 156.321 541.342 157.271 541.09 158.211C540.837 159.151 540.22 159.899 539.432 160.354C538.643 160.799 537.672 160.951 536.722 160.698C535.772 160.445 535.003 159.829 534.549 159.04C534.094 158.252 533.932 157.302 534.185 156.362C534.437 155.422 535.054 154.674 535.843 154.219C536.631 153.774 537.602 153.622 538.552 153.875Z" fill="black"/>
<path fill-rule="evenodd" clip-rule="evenodd" d="M518.23 146.203C520.404 146.789 521.698 149.003 521.122 151.146C520.545 153.289 518.311 154.552 516.138 153.976C513.964 153.39 512.67 151.176 513.246 149.033C513.822 146.89 516.057 145.627 518.23 146.203ZM516.39 153.016C518.028 153.46 519.716 152.5 520.151 150.883C520.586 149.266 519.605 147.588 517.967 147.153C516.33 146.708 514.641 147.668 514.207 149.286C513.772 150.903 514.742 152.581 516.39 153.016Z" fill="white"/>
<path fill-rule="evenodd" clip-rule="evenodd" d="M538.683 153.4C540.856 153.986 542.15 156.199 541.574 158.342C540.998 160.485 538.764 161.749 536.59 161.173C534.416 160.586 533.122 158.373 533.699 156.23C534.275 154.087 536.509 152.823 538.683 153.4ZM536.853 160.212C538.491 160.657 540.179 159.697 540.614 158.08C541.048 156.462 540.078 154.784 538.43 154.35C536.792 153.905 535.104 154.865 534.669 156.483C534.234 158.1 535.205 159.778 536.853 160.212Z" fill="white"/>
<path d="M537.866 156.756C538.028 156.139 537.664 155.512 537.037 155.34C536.42 155.169 535.783 155.532 535.611 156.149C535.449 156.766 535.813 157.392 536.44 157.564C537.057 157.736 537.694 157.372 537.866 156.756Z" fill="white"/>
<path d="M507.073 160.273L515.181 175.941" stroke="#ECB732"/>
<path d="M516.857 164.822L506.959 170.341" stroke="#ECB732"/>
<path d="M543.303 171.393L527.794 179.813" stroke="#ECB732"/>
<path d="M532.648 169.664L537.743 179.782" stroke="#ECB732"/>
<path d="M538.149 140.623L528.079 146.092" stroke="#FFC73B"/>
<path d="M534.175 147.961L528.907 137.792" stroke="#FFC73B"/>
<path opacity="0.6" d="M175.789 196.893C78.7144 196.893 0.0195312 229.644 0.0195312 270.046V396.894C0.0195312 378.456 16.4177 361.616 43.4614 348.748C56.1897 342.694 71.2837 337.518 88.1368 333.475C113.937 327.289 143.862 323.741 175.779 323.741C207.696 323.741 237.621 327.279 263.421 333.475C279.961 337.437 294.792 342.501 307.368 348.405L308.096 348.748V221.901C275.876 206.577 228.552 196.893 175.779 196.893H175.789Z" fill="url(#paint45_linear_0_1603)"/>
<path opacity="0.67" d="M0 270.673V397.521C0 415.958 16.3981 432.798 43.4419 445.666V318.818C16.3981 305.961 0 289.11 0 270.673Z" fill="url(#paint46_linear_0_1603)"/>
<path opacity="0.2" d="M177.288 220.263C174.7 220.263 172.132 220.283 169.574 220.333V231.958C172.132 231.907 174.7 231.887 177.288 231.887C182.758 231.887 188.177 231.998 193.525 232.211V220.586C188.177 220.374 182.758 220.263 177.288 220.263Z" fill="#3486FE"/>
<path d="M164.475 240.368V244.27C168.701 244.139 172.977 244.068 177.284 244.068C179.124 244.068 180.964 244.078 182.794 244.108V240.206C180.964 240.186 179.124 240.166 177.284 240.166C172.977 240.166 168.711 240.237 164.475 240.368Z" fill="#3486FE"/>
<path d="M71.244 321.961C74.0444 323.346 76.7942 323.761 80.4338 323.336C76.8145 323.751 74.0646 323.336 71.244 321.961Z" fill="#3486FE"/>
<path d="M80.9587 323.255C80.9587 323.255 81.0099 323.255 81.0304 323.245C81.0099 323.245 80.9792 323.245 80.9587 323.255Z" fill="#3486FE"/>
<path d="M79.2017 321.294C81.3247 321.183 83.3669 320.718 85.308 320C83.1748 319.94 81.2843 321.092 79.2017 321.294Z" fill="#3486FE"/>
<path d="M85.3166 322.113C84.6087 322.366 84.0322 322.548 83.3444 322.74C84.0423 322.548 84.6188 322.366 85.3166 322.113Z" fill="#3486FE"/>
<path d="M94.333 279.538C90.3902 278.042 86.9427 278.517 84.8803 278.79C85.1432 279.234 85.3353 279.831 84.8399 280.831C103.24 279.062 107.931 298.167 96.9717 311.5C94.3128 314.744 90.1779 318.171 85.305 319.99C85.3555 319.99 85.4061 319.99 85.4465 319.99C86.5181 320.051 86.3766 321.163 85.9014 321.699C85.7195 321.911 85.5173 322.002 85.3656 322.073C108.183 312.692 110.842 285.774 94.3229 279.517L94.333 279.538Z" fill="#3486FE"/>
<path d="M79.1968 321.294C79.0355 321.294 78.8843 321.325 78.7331 321.325C78.8944 321.325 79.0456 321.315 79.1968 321.294Z" fill="#3486FE"/>
<path d="M85.054 320.112C81.8289 321.284 77.0167 322.204 72.4167 319.95C72.3055 321.001 71.709 321.628 71.244 321.962C77.4008 324.964 86.985 322.962 86.2368 320.526C86.1661 320.294 85.9133 319.799 85.054 320.102V320.112Z" fill="#FF6984"/>
<path d="M83.3562 278.305C61.5494 285.512 57.5762 315.017 69.6271 322.123C70.9313 322.892 72.8117 320.981 72.377 319.324C72.2456 318.838 72.1849 318.798 71.184 318.09C70.2236 317.413 65.5023 313.582 66.2403 304.333C66.7559 297.914 70.1023 291.203 74.9853 286.795C78.3923 283.722 81.5062 282.702 83.3664 282.085C83.5382 282.024 83.9831 281.883 84.3773 281.489C85.9646 279.881 84.994 277.85 83.3664 278.315L83.3562 278.305Z" fill="white"/>
<path d="M31.1695 246.292C31.1695 246.292 31.1286 246.322 31.1082 246.343C31.1286 246.322 31.1491 246.312 31.1695 246.292Z" fill="#3486FE"/>
<path d="M39.8754 298.238C34.6688 304.485 33.7387 305.617 30.6856 305.566C26.5203 305.495 25.7419 300.249 25.6003 297.995C25.3577 294.073 26.308 288.433 28.9063 283.773C28.3603 284.733 27.8852 285.734 27.4808 286.775C26.8337 288.463 26.581 287.311 26.581 287.301C26.581 287.23 26.581 287.129 26.6113 287.018C23.4368 295.872 24.1951 306.557 29.9273 307.052C32.5155 307.274 36.6605 305.223 40.5325 298.773C40.2596 298.794 40.0271 298.763 39.8653 298.238H39.8754Z" fill="#3486FE"/>
<path d="M32.4867 277.83C28.6045 281.135 25.7333 287.614 26.8454 287.695C27.1386 287.715 27.2902 287.301 27.5026 286.775C28.2102 284.936 29.8076 281.499 32.5979 279.164C32.3148 278.79 32.3856 278.234 32.4968 277.84L32.4867 277.83Z" fill="white"/>
<path d="M33.7885 276.343C31.5442 277.698 32.5147 279.275 32.8787 279.315C33.0606 279.335 33.2224 279.224 33.3538 279.143C35.8307 277.476 37.7415 277.86 38.6615 278.244C40.4105 278.961 41.7551 280.781 42.3718 283.227C43.0491 285.936 43.2109 290.505 40.1173 296.883C39.5511 298.056 39.9859 298.895 40.552 298.773C42.8166 298.308 47.5076 283.642 42.0988 277.405C41.0777 276.232 38.2369 273.786 33.7987 276.343H33.7885Z" fill="#FF6984"/>
<path opacity="0.2" d="M172.56 263V304.565C175.826 304.484 179.112 304.444 182.418 304.444C224.404 304.444 263.003 310.812 293.444 321.466V279.901C263.003 269.247 224.404 262.879 182.418 262.879C179.112 262.879 175.816 262.919 172.56 263ZM284.769 288.443C284.84 287.614 285.538 287.735 285.881 288.109C286.154 288.412 286.185 288.746 286.195 288.887V313.935C286.124 314.724 285.507 314.542 285.477 314.532C285.042 314.34 284.8 313.996 284.759 313.48V288.443H284.769ZM273.012 291.333C273.092 290.424 273.952 290.616 274.296 291.091C274.478 291.344 274.498 291.546 274.518 291.738V310.478C274.447 311.206 273.932 311.135 273.77 311.095C273.305 310.923 273.052 310.59 273.012 310.074V291.323V291.333ZM260.637 300.38C260.678 299.622 261.466 299.521 261.941 300.037C262.204 300.33 262.224 300.633 262.224 300.734V307.436C262.194 308.032 261.739 308.143 261.436 308.083C260.981 307.951 260.668 307.557 260.637 307.082V300.38ZM247.707 281.518C247.798 280.599 248.738 280.74 249.122 281.185C249.324 281.427 249.345 281.619 249.365 281.812V304.798C249.294 305.525 248.718 305.495 248.546 305.475C248.03 305.333 247.757 305.03 247.707 304.504V281.508V281.518ZM234.261 276.009C234.362 275.09 235.332 275.191 235.727 275.635C235.939 275.868 235.959 276.07 235.979 276.252V302.624C235.898 303.393 235.251 303.342 235.12 303.322C234.594 303.19 234.311 302.887 234.261 302.382V276.009ZM220.35 267.195C220.532 266.103 221.735 266.457 222.018 266.973C222.078 267.084 222.109 267.256 222.129 267.377V300.916C222.018 301.563 221.593 301.674 221.259 301.644C220.481 301.502 220.4 300.987 220.36 300.734V267.195H220.35ZM206.014 269.035C206.115 268.085 207.257 268.095 207.682 268.681C207.803 268.853 207.823 269.015 207.834 269.146V299.683C207.743 300.471 207.005 300.451 206.924 300.441C206.368 300.35 206.064 300.067 206.014 299.562V269.025V269.035Z" fill="#3486FE"/>
<path d="M285.498 287.846C285.063 287.765 284.82 287.967 284.78 288.442V313.48C284.861 314.471 285.74 314.804 286.094 314.36C286.185 314.238 286.206 314.046 286.216 313.935V288.887C286.145 288.058 285.569 287.856 285.498 287.836V287.846Z" fill="#FF6984"/>
<path d="M273.761 290.717C273.306 290.646 273.063 290.848 273.023 291.344V310.094C273.114 311.135 274.095 311.338 274.408 310.923C274.51 310.792 274.52 310.63 274.54 310.499V291.758C274.469 290.909 273.842 290.747 273.771 290.727L273.761 290.717Z" fill="#FF6984"/>
<path d="M261.436 299.744C260.981 299.673 260.668 299.926 260.637 300.391V307.092C260.678 307.952 261.608 308.376 262.043 307.931C262.205 307.759 262.215 307.547 262.225 307.446V300.744C262.195 300.128 261.74 299.804 261.436 299.744Z" fill="#FF6984"/>
<path d="M248.517 280.851C248.021 280.811 247.748 281.033 247.697 281.529V304.525C247.799 305.566 248.871 305.697 249.214 305.253C249.326 305.111 249.336 304.949 249.356 304.818V281.832C249.275 280.993 248.598 280.872 248.517 280.861V280.851Z" fill="#FF6984"/>
<path d="M235.099 275.312C234.584 275.292 234.3 275.525 234.25 276.02V302.392C234.361 303.423 235.463 303.524 235.817 303.069C235.929 302.918 235.949 302.756 235.959 302.635V276.262C235.878 275.423 235.17 275.322 235.089 275.312H235.099Z" fill="#FF6984"/>
<path d="M221.21 266.467C220.674 266.467 220.39 266.71 220.33 267.205V300.744C220.512 301.907 221.705 301.775 221.999 301.3C222.059 301.199 222.09 301.037 222.1 300.926V267.387C221.978 266.609 221.432 266.488 221.2 266.467H221.21Z" fill="#FF6984"/>
<path d="M206.904 268.277C206.085 268.307 206.024 268.863 206.004 269.045V299.582C206.115 300.593 207.349 300.674 207.713 300.087C207.774 299.986 207.814 299.825 207.824 299.703V269.166C207.733 268.327 206.934 268.287 206.904 268.287V268.277Z" fill="#FF6984"/>
<path d="M83.3564 291.475C73.3376 294.75 70.5675 307.911 77.0782 311.732C84.3472 315.987 95.3062 306.253 93.3651 297.267C92.3744 292.688 88.0777 290.201 83.3564 291.485V291.475Z" fill="#3486FE"/>
<path opacity="0.2" d="M122.582 228.239C135.543 226.409 149.161 225.206 163.234 224.731V220.506C149.161 220.991 135.543 222.184 122.582 224.013V228.239Z" fill="#3486FE"/>
<path opacity="0.2" d="M122.582 235.89C135.543 234.061 149.161 232.858 163.234 232.383V228.158C149.161 228.643 135.543 229.836 122.582 231.665V235.89Z" fill="#3486FE"/>
<path opacity="0.2" d="M122.582 243.532C129.548 242.552 136.706 241.743 144.015 241.137V236.912C136.706 237.518 129.548 238.317 122.582 239.307V243.532Z" fill="#3486FE"/>
<path d="M4.84174 313.774V317.999C8.26897 323.821 13.1924 329.381 19.4201 334.597V330.372C13.1924 325.156 8.26897 319.596 4.84174 313.774Z" fill="#3486FE"/>
<path d="M4.84174 321.416V325.631C8.26897 331.453 13.1924 337.012 19.4201 342.228V338.013C13.1924 332.797 8.26897 327.238 4.84174 321.416Z" fill="#3486FE"/>
<path d="M4.84174 329.067V333.282C8.26897 339.105 13.1924 344.664 19.4201 349.88V345.665C13.1924 340.449 8.26897 334.89 4.84174 329.067Z" fill="#3486FE"/>
<path d="M4.84174 345.413V349.638C10.5437 358.038 10.7054 358.189 19.4201 366.235V362.01C13.1924 356.794 8.26897 351.235 4.84174 345.413Z" fill="#3486FE"/>
<path d="M4.84174 353.054V357.279C8.26897 363.102 13.1924 368.661 19.4201 373.877V369.652C13.1924 364.436 8.26897 358.877 4.84174 353.054Z" fill="#3486FE"/>
<path d="M7.81317 365.194V369.42C10.9169 373.625 14.8092 377.668 19.4192 381.519V377.294C14.8092 373.443 10.9169 369.389 7.81317 365.194Z" fill="#3486FE"/>
<path d="M0.28125 373.16V377.385C2.75816 387.21 9.40031 396.489 19.409 404.869V400.644C9.40031 392.264 2.75816 382.985 0.28125 373.16Z" fill="#3486FE"/>
<path d="M0.28125 380.812V385.037C2.75816 394.862 9.40031 404.141 19.409 412.521V408.296C9.40031 399.916 2.75816 390.637 0.28125 380.812Z" fill="#3486FE"/>
<path d="M7.81317 403.828V408.053C10.9169 412.258 14.8092 416.301 19.4192 420.152V415.927C14.8092 412.076 10.9169 408.023 7.81317 403.828Z" fill="#3486FE"/>
<path d="M72.9401 337.012C71.6461 337.477 70.8373 339.357 70.8777 340.368C70.9283 341.389 66.0958 337.124 62.8101 334.162C59.5244 331.21 52.5284 330.28 51.6792 330.786C50.8299 331.281 50.9816 333.697 56.1578 334.617C56.1578 334.617 52.8418 335.557 50.8805 336.487C48.9192 337.417 48.9798 344.553 52.3869 345.038C55.7939 345.523 59.7872 348.455 62.5169 350.254C65.2466 352.053 70.7059 354.752 70.7059 354.752L77.7019 347.869C74.7902 344.775 74.2443 336.547 72.9401 337.002V337.012Z" fill="url(#paint47_linear_0_1603)"/>
<path d="M158.482 326.561C158.482 326.561 159.503 326.46 162.9 322.73C164.73 320.728 163.931 311.51 164.669 307.052C165.407 302.594 174.446 298.784 176.387 302.301C178.328 305.819 183.767 318.323 187.144 318.899C190.52 319.465 192.532 320.051 193.826 329.634C194.918 337.771 185.314 341.582 180.289 336.032C175.264 330.483 165.771 326.692 160.838 326.136L158.482 326.571V326.561Z" fill="url(#paint48_linear_0_1603)"/>
<path style="mix-blend-mode:multiply" d="M193.836 329.624C193.745 328.946 193.644 328.309 193.553 327.723C189.681 326.621 184.99 325.034 182.311 323.215C175.719 318.727 173.718 306.456 173.141 300.937C169.775 301.139 165.205 303.939 164.69 307.052C164.69 307.103 164.669 307.163 164.659 307.224L166.408 309.225C169.178 313.632 169.623 323.053 166.661 327.602C171.382 329.28 176.882 332.242 180.299 336.032C185.324 341.582 194.938 337.771 193.836 329.634V329.624Z" fill="url(#paint49_linear_0_1603)"/>
<path d="M176.05 319.919C175.858 319.909 175.677 319.899 175.506 319.889C175.737 319.909 175.929 319.919 176.05 319.919Z" fill="white"/>
<path d="M173.684 319.768C173.119 319.727 173.26 319.738 173.684 319.768V319.768Z" fill="white"/>
<path d="M174.425 319.818C174.183 319.798 173.992 319.788 173.83 319.778C174.002 319.788 174.214 319.798 174.425 319.818Z" fill="white"/>
<path d="M175.518 319.889C175.194 319.869 174.8 319.839 174.436 319.818C174.729 319.839 175.083 319.859 175.518 319.889Z" fill="white"/>
<path d="M176.05 319.919C175.858 319.909 175.677 319.899 175.506 319.889C175.737 319.909 175.929 319.919 176.05 319.919Z" fill="white"/>
<path d="M175.518 319.889C175.194 319.869 174.8 319.839 174.436 319.818C174.729 319.839 175.083 319.859 175.518 319.889Z" fill="white"/>
<path d="M174.425 319.818C174.183 319.798 173.992 319.788 173.83 319.778C174.002 319.788 174.214 319.798 174.425 319.818Z" fill="white"/>
<path d="M173.684 319.768C173.119 319.727 173.26 319.738 173.684 319.768V319.768Z" fill="white"/>
<path d="M152.441 290.222C145.515 283.075 146.263 278.739 149.246 274.403C152.643 269.449 165.492 258.715 180.01 264.608C194.528 270.501 191.869 271.623 199.936 275.535C208.004 279.457 222.451 280.356 224.594 287.856C233.582 319.283 237.141 302.008 250.728 315.058C260.585 324.529 261.606 342.663 251.102 342.613C233.188 342.522 238.596 355.581 227.809 361.586C218.953 366.508 211.179 359.978 197.086 337.801C191.859 329.583 178.494 329.866 174.662 324.923C169.465 318.222 168.869 316.453 166.736 308.386C165.543 303.898 154.24 292.082 152.451 290.232L152.441 290.222Z" fill="#ED7286"/>
<path d="M244.742 334.162C222.905 333.333 228.93 314.502 210.207 313.006C180.787 310.66 194.203 296.145 167.938 285.885C159.587 282.62 162.216 276.96 154.421 277.677C147.728 278.284 148.941 285.582 151.61 285.087L154.856 292.769C154.967 292.88 155.068 293.001 155.179 293.123C156.706 293.679 166.391 297.479 170.243 306.213C172.245 310.762 176.38 323.387 188.35 326.722C194.911 328.552 199.207 336.376 202.149 345.483C213.159 361.444 220.064 365.881 227.798 361.585C238.595 355.581 233.176 342.532 251.091 342.612C255.56 342.633 257.935 339.368 258.441 334.87C255.297 334.496 250.677 334.384 244.742 334.162Z" fill="url(#paint50_linear_0_1603)"/>
<path opacity="0.5" d="M224.583 287.856C222.439 280.366 207.992 279.457 199.925 275.535C191.857 271.613 194.516 270.491 179.998 264.608C165.481 258.725 152.631 269.46 149.234 274.402C146.252 278.749 145.504 283.075 152.429 290.222C144.23 278.203 149.578 274.413 152.671 272.684C180.312 257.269 193.808 292.466 198.418 290.282C214.867 282.469 222.197 297.803 224.562 287.856H224.583Z" fill="white"/>
<path d="M117.944 281.357C115.71 280.548 111.362 280.255 109.846 278.739C108.329 277.222 107.773 274.796 106.115 273.139C104.457 271.481 101.424 271.855 104.73 275.16C108.036 278.466 107.682 288.139 105.195 287.24C102.708 286.33 102.112 286.118 101.222 287.007C100.333 287.897 109.027 291.707 111.089 298.733L120.198 297.267C120.198 297.267 117.954 292.718 117.954 290.272C117.954 287.826 120.188 282.155 117.954 281.336L117.944 281.357Z" fill="url(#paint51_linear_0_1603)"/>
<path d="M121.858 300.724C118.866 292.112 113.892 294.78 111.607 296.923C109.322 299.076 114.994 313.945 116.743 324.559C118.492 335.172 121.929 343.239 124.932 344.341C127.934 345.442 139.803 346.807 139.803 346.807L150.954 332.049C150.954 332.049 137.529 333.414 135.365 330.128C132.645 326.004 121.858 300.724 121.858 300.724Z" fill="#91BEFF"/>
<path d="M135.363 330.129C132.643 326.004 121.856 300.724 121.856 300.724C119.237 293.203 115.123 294.285 112.595 296.104C114.496 300.309 116.74 306.455 120.087 315.795C126.516 333.737 130.945 337.77 133.31 338.629C134.432 339.044 139.477 339.893 144.441 340.681L150.962 332.049C150.962 332.049 137.536 333.414 135.373 330.129H135.363Z" fill="white"/>
<path d="M211.954 601.442C211.934 601.392 211.914 601.341 211.884 601.301C211.803 600.755 211.651 600.189 211.398 599.603C209.609 595.458 203.523 585.491 203.523 585.491L191.148 587.271C193.302 596.034 187.125 601.948 183.515 604.374C179.906 606.789 175.043 606.456 172.192 611.176C169.341 615.887 182.161 616.746 187.387 615.462C192.311 614.249 196.537 608.801 202.653 607.75C203.179 608.953 203.887 610.62 204.311 611.742C205.039 613.663 211.934 611.358 211.894 610.004C211.843 608.205 212.5 603.292 211.944 601.462L211.954 601.442Z" fill="white"/>
<g style="mix-blend-mode:multiply">
<path d="M187.398 615.452C192.321 614.239 196.547 608.791 202.663 607.74C203.189 608.943 203.897 610.61 204.321 611.732C205.049 613.653 211.944 611.348 211.904 609.994C211.853 608.195 212.51 603.282 211.954 601.452C211.934 601.402 211.914 601.351 211.884 601.311C211.803 600.765 211.651 600.199 211.398 599.613C209.609 595.468 203.523 585.502 203.523 585.502L198.235 586.26L196.092 588.645C196.092 602.221 187.954 607.224 184.031 608.649C181.817 609.458 177.359 609.357 173.871 609.114C173.264 609.67 172.698 610.348 172.192 611.177C169.341 615.887 182.161 616.746 187.387 615.462L187.398 615.452Z" fill="#91BEFF"/>
</g>
<path d="M165.369 452.7C155.654 491.354 158.555 493.588 161.538 502.463C165.086 513.006 171.243 525.965 171.668 527.683C172.092 529.401 189.39 577.142 191.159 587.271C192.049 592.375 203.837 588.251 203.534 585.492C202.634 577.274 200.693 539.813 198.701 529.149C196.71 518.484 184.77 502.028 182.465 496.095C180.16 490.171 201.017 455.227 204.272 448.698C212.552 432.09 198.206 425.388 190.674 408.972C183.142 392.557 170.586 431.979 165.379 452.69L165.369 452.7Z" fill="url(#paint52_linear_0_1603)"/>
<path style="mix-blend-mode:multiply" d="M196.174 589.626C199.682 589.222 203.706 587.119 203.524 585.492C202.624 577.274 200.683 539.813 198.691 529.149C196.7 518.475 184.76 502.029 182.455 496.095C180.959 492.254 189.188 476.243 196.053 463.668C186.549 470.804 173.882 480.084 168.716 488.726C166.886 491.789 167.341 495.701 169.828 498.268C182.313 511.176 189.906 528.007 191.736 537.822C193.474 547.111 195.173 576.708 196.164 589.636L196.174 589.626Z" fill="url(#paint53_linear_0_1603)"/>
<path d="M205.232 540.844C212.773 544.483 217.687 558.351 216.292 567.277C215.746 570.754 211.358 581.469 216.241 580.69C223.217 579.578 229.616 564.77 229.536 556.259C229.485 550.871 229.404 552.327 233.216 548.617C237.3 544.645 237.189 541.43 230.263 539.227C223.652 537.124 211.692 530.766 211.692 530.766L204.271 533.586L205.232 540.834V540.844Z" fill="#91BEFF"/>
<g style="mix-blend-mode:multiply">
<path d="M232.629 549.193L229.222 546.919C227.473 549.678 226.684 552.387 226.068 553.681C224.076 557.826 221.084 569.804 216.554 576.122C215.19 578.022 214.967 579.518 215.422 580.7C215.665 580.741 215.938 580.741 216.251 580.7C223.227 579.589 229.626 564.78 229.545 556.269C229.495 551.174 229.424 552.195 232.629 549.193Z" fill="#3486FE"/>
</g>
<path d="M234.893 541.926C233.347 540.783 225.896 548.951 229.1 551.731C230.233 552.711 232.679 553.439 234.408 554.541C236.147 555.642 240.828 550.882 239.989 549.82C238.867 548.405 236.44 543.068 234.893 541.926Z" fill="#91BEFF"/>
<g style="mix-blend-mode:multiply">
<path d="M234.409 554.551C235.946 555.764 240.263 551.468 240.081 550.113C239.747 547.586 233.489 553.833 234.409 554.551Z" fill="#3486FE"/>
</g>
<path d="M211.689 417.969C228.592 442.805 147.138 501.725 154.548 503.423C161.959 505.122 166.751 502.999 185.08 513.289C203.409 523.579 207.22 528.31 211.689 530.776C206.138 532.919 205.229 540.844 205.229 540.844C201.943 538.944 163.414 527.582 150.403 523.549C137.392 519.516 129.627 517.069 125.523 511.914C117.091 501.301 159.401 431.999 159.401 431.999L211.689 417.979V417.969Z" fill="url(#paint54_linear_0_1603)"/>
<path style="mix-blend-mode:multiply" d="M205.228 540.844C205.228 540.844 206.138 532.919 211.688 530.776C207.22 528.3 203.409 523.569 185.079 513.289C166.75 502.999 161.958 505.122 154.548 503.423C147.137 501.725 228.592 442.815 211.688 417.969L194.168 422.669C194.795 452.731 172.23 472.3 168.924 476.06C165.042 480.458 164.718 479.79 160.28 481.216C155.842 482.641 148.34 482.752 147.127 484.086C145.904 485.421 137.856 505.536 138.878 507.537C140.616 510.944 141.243 510.479 150.241 519.485C151.778 521.022 153.84 523.023 156.287 525.358C172.412 530.25 202.337 539.186 205.218 540.854L205.228 540.844Z" fill="url(#paint55_linear_0_1603)"/>
<path d="M165.062 295.407C166.053 297.773 167.357 301.199 165.396 303.777C168.469 307.446 168.691 312.955 168.307 313.117C162.757 315.371 161.352 315.735 159.289 315.796C154.892 315.927 152.516 302.443 152.202 299.926C151.707 295.933 153.496 295.387 153.941 291.455C154.194 289.231 152.344 285.077 152.344 285.077C155.569 283.53 156.125 283.935 159.684 292.971C160.543 295.155 162.019 288.18 165.052 295.397L165.062 295.407Z" fill="url(#paint56_linear_0_1603)"/>
<path style="mix-blend-mode:multiply" d="M161.243 297.763C161.324 298.804 161.718 301.038 162.86 301.553C165.448 302.726 164.154 296.257 163.335 294.872C162.506 293.487 160.949 293.78 161.243 297.763Z" fill="url(#paint57_linear_0_1603)"/>
<path style="mix-blend-mode:multiply" d="M165.063 295.408C162.03 288.19 160.554 295.165 159.694 292.982C156.136 283.945 155.58 283.541 152.355 285.087C152.355 285.087 152.911 286.351 153.376 287.857C155.337 291.728 158.33 292.456 156.995 293.81C152.102 298.774 155.317 308.821 160.089 315.755C161.797 315.604 163.496 315.078 168.298 313.117C168.682 312.966 168.46 307.446 165.386 303.777C167.347 301.2 166.043 297.773 165.053 295.408H165.063Z" fill="url(#paint58_linear_0_1603)"/>
<path d="M77.9016 345.958C82.178 349.112 102.923 357.421 111.628 365.74C113.761 367.782 122.425 357.492 127.794 351.993C133.162 346.494 141.381 329.755 150.945 327.349C156.829 325.873 158.992 325.732 163.663 324.761C169.82 323.488 176.381 325.924 183.185 324.953C185.035 324.691 184.853 318.423 186.329 318.595C193.275 319.394 200.605 323.932 204.062 329.836C207.52 335.739 212.443 346.524 210.836 363.031C209.238 379.477 201.909 388.311 211.129 404.05C220.986 420.86 216.315 440.177 213.1 464.264C211.321 477.607 210.856 495.893 210.856 495.893C202.252 504.495 181.517 478.355 159.72 492.001C134.739 507.649 109.07 480.7 106.472 475.818C85.2211 435.87 126.54 451.629 150.713 426.965C153.361 424.256 164.32 410.236 166.272 406.557C172.479 394.892 165.645 383.025 160.276 379.062C153.503 374.059 152.128 368.904 152.462 365.437C153.25 357.35 153.917 356.754 153.917 356.754C151.895 359.736 136.003 368.924 130.028 373.665C124.053 378.405 119.524 381.256 118.007 382.459C116.491 383.662 114.984 386.33 106.108 379.841C101.296 376.323 78.3868 361.383 72.4322 356.622C67.3267 352.539 72.3816 341.905 77.8814 345.958H77.9016Z" fill="#91BEFF"/>
<path d="M210.876 495.883C210.876 495.883 211.341 477.597 213.12 464.254C216.335 440.166 221.006 420.85 211.149 404.04C201.918 388.311 209.258 379.477 210.856 363.021C212.281 348.313 208.53 338.155 205.255 331.938C198.906 327.48 191.859 323.67 184.914 321.577C184.54 323.164 184.125 324.802 183.195 324.933C177.19 325.792 171.377 323.993 165.857 324.438C164.573 325.691 160.529 328.895 150.722 331.524C144.252 333.262 132.939 350.052 130.958 352.266C128.986 354.489 117.522 374.433 110.111 375.009C104.157 375.474 81.6925 358.229 70.329 351.77C70.3088 353.59 70.9154 355.379 72.4319 356.602C78.3866 361.373 101.306 376.303 106.108 379.821C114.984 386.31 116.49 383.641 118.007 382.439C119.523 381.236 124.053 378.385 130.028 373.644C135.74 369.106 150.53 360.504 153.563 357.158C153.674 357.016 153.796 356.875 153.907 356.733C156.899 353.034 150.702 368.418 162.045 373.968C181.85 383.652 182.973 390.555 182.407 397.874C181.315 412.035 188.179 425.904 154.301 439.772C141.856 444.867 122.465 466.357 111.203 481.479C120.221 490.424 140.168 504.212 159.7 491.981C179.839 476.657 191.263 487.826 191.263 487.826C191.263 489.515 191.394 491.122 191.647 492.638C199.977 496.226 206.761 499.936 210.825 495.862L210.876 495.883Z" fill="white"/>
<path d="M168.45 393.628L167.955 401.978C177.377 420.122 209.152 400.27 209.152 400.27C208.242 398.42 206.979 393.628 206.979 393.628C181.886 408.993 168.45 399.572 168.45 393.628Z" fill="#3486FE"/>
<path d="M168.45 393.628L167.955 401.978C170.998 407.841 176.366 409.731 182.25 409.62V401.978C173.172 401.897 168.45 397.156 168.45 393.628Z" fill="#2848BD"/>
<path opacity="0.67" d="M64.7623 225.59V266.477C77.3187 261.474 91.988 257.471 108.113 254.762V213.875C91.988 216.584 77.3187 220.586 64.7623 225.59Z" fill="url(#paint59_linear_0_1603)"/>
<path d="M102.574 242.885C102.756 243.259 102.857 243.714 102.857 244.21C102.857 244.705 102.766 245.21 102.574 245.696C102.392 246.171 102.119 246.605 101.806 246.939C101.482 247.283 101.118 247.515 100.754 247.616L89.1077 250.972L91.0285 246.019L98.6716 243.815L92.9393 232.252L91.0285 237.195L87.4598 246.433C85.9837 250.163 83.8506 252.468 80.9592 253.297L73.6396 255.399C73.2757 255.5 72.9016 255.48 72.5882 255.329C72.2647 255.177 72.0019 254.894 71.8199 254.53C71.6379 254.156 71.5368 253.701 71.5368 253.206C71.5368 252.711 71.6278 252.205 71.8199 251.72L81.5556 226.49C81.7376 226.015 82.0106 225.58 82.324 225.247C82.6374 224.913 83.0013 224.671 83.3754 224.559C83.7495 224.448 84.1134 224.478 84.4268 224.64C84.7503 224.792 85.0132 225.075 85.1952 225.439L89.1077 233.333L91.1094 228.148C91.2914 227.673 91.5644 227.238 91.8778 226.904C92.2013 226.561 92.5652 226.328 92.9292 226.217C93.2931 226.106 93.6672 226.136 93.9806 226.298C94.3041 226.45 94.567 226.733 94.749 227.096L102.574 242.865V242.885ZM84.6391 244.927L87.1969 238.306L83.3754 230.594L75.7324 250.416L80.8378 248.95C82.5565 248.455 83.6686 247.353 84.6492 244.937" fill="#00DC82"/>
<path d="M245.59 197.075L251.737 210.569L257.954 224.074L250.736 234.94L232.093 194.497L245.59 197.075Z" fill="#3AB982"/>
<path d="M272.391 202.19L257.954 224.074L251.757 210.539L258.955 199.622L272.391 202.19Z" fill="#34495F"/>
<path d="M258.953 199.622L251.755 210.539L245.588 197.075L248.348 197.6L258.953 199.622Z" fill="#F78200"/>
<path d="M258.25 182.479L263.153 193.193L258.957 199.622L248.352 197.6L258.25 182.479Z" fill="#FFCC00"/>
<path d="M253.331 171.845L258.245 182.479L248.347 197.6L245.587 197.075L241.917 189.14L253.331 171.845Z" fill="#FFE183"/>
<defs>
<linearGradient id="paint0_linear_0_1603" x1="214.066" y1="205.323" x2="268.666" y2="229.923" gradientUnits="userSpaceOnUse">
<stop stop-color="#20267F"/>
<stop offset="0.24" stop-color="#212881"/>
<stop offset="0.42" stop-color="#252F8B"/>
<stop offset="0.57" stop-color="#2C3B9B"/>
<stop offset="0.71" stop-color="#364DB1"/>
<stop offset="0.85" stop-color="#4363CE"/>
<stop offset="0.98" stop-color="#527EF2"/>
<stop offset="1" stop-color="#5684F9"/>
</linearGradient>
<linearGradient id="paint1_linear_0_1603" x1="152.658" y1="191.485" x2="371.498" y2="265.266" gradientUnits="userSpaceOnUse">
<stop stop-color="#20267F"/>
<stop offset="0.24" stop-color="#212881"/>
<stop offset="0.42" stop-color="#252F8B"/>
<stop offset="0.57" stop-color="#2C3B9B"/>
<stop offset="0.71" stop-color="#364DB1"/>
<stop offset="0.85" stop-color="#4363CE"/>
<stop offset="0.98" stop-color="#527EF2"/>
<stop offset="1" stop-color="#5684F9"/>
</linearGradient>
<linearGradient id="paint2_linear_0_1603" x1="294.278" y1="110.387" x2="262.182" y2="128.728" gradientUnits="userSpaceOnUse">
<stop stop-color="#E8F0FD"/>
<stop offset="0.17" stop-color="#DEE8FC"/>
<stop offset="0.46" stop-color="#C3D6FB"/>
<stop offset="0.83" stop-color="#98B7FA"/>
<stop offset="1" stop-color="#83A8FA"/>
</linearGradient>
<linearGradient id="paint3_linear_0_1603" x1="170.836" y1="82.2053" x2="182.412" y2="82.2053" gradientUnits="userSpaceOnUse">
<stop stop-color="#F1CFBA"/>
<stop offset="1" stop-color="#D388A1"/>
</linearGradient>
<linearGradient id="paint4_linear_0_1603" x1="180.774" y1="69.5095" x2="185.667" y2="69.5095" gradientUnits="userSpaceOnUse">
<stop stop-color="#F1CFBA"/>
<stop offset="1" stop-color="#D388A1"/>
</linearGradient>
<linearGradient id="paint5_linear_0_1603" x1="312.193" y1="145.685" x2="343.139" y2="150.063" gradientUnits="userSpaceOnUse">
<stop stop-color="#E8F0FD"/>
<stop offset="0.17" stop-color="#DEE8FC"/>
<stop offset="0.46" stop-color="#C3D6FB"/>
<stop offset="0.83" stop-color="#98B7FA"/>
<stop offset="1" stop-color="#83A8FA"/>
</linearGradient>
<linearGradient id="paint6_linear_0_1603" x1="248.387" y1="125.195" x2="280.506" y2="125.195" gradientUnits="userSpaceOnUse">
<stop stop-color="#F1CFBA"/>
<stop offset="1" stop-color="#D388A1"/>
</linearGradient>
<linearGradient id="paint7_linear_0_1603" x1="256.819" y1="131.513" x2="279.728" y2="131.513" gradientUnits="userSpaceOnUse">
<stop stop-color="#F1CFBA"/>
<stop offset="1" stop-color="#D388A1"/>
</linearGradient>
<linearGradient id="paint8_linear_0_1603" x1="316.224" y1="117.17" x2="347.17" y2="121.548" gradientUnits="userSpaceOnUse">
<stop stop-color="#E8F0FD"/>
<stop offset="0.17" stop-color="#DEE8FC"/>
<stop offset="0.46" stop-color="#C3D6FB"/>
<stop offset="0.83" stop-color="#98B7FA"/>
<stop offset="1" stop-color="#83A8FA"/>
</linearGradient>
<linearGradient id="paint9_linear_0_1603" x1="312.111" y1="38.1137" x2="316.681" y2="38.1137" gradientUnits="userSpaceOnUse">
<stop stop-color="#F1CFBA"/>
<stop offset="1" stop-color="#D388A1"/>
</linearGradient>
<linearGradient id="paint10_linear_0_1603" x1="344.122" y1="53.0337" x2="269.721" y2="-2.37408" gradientUnits="userSpaceOnUse">
<stop stop-color="#20267F"/>
<stop offset="0.24" stop-color="#212881"/>
<stop offset="0.42" stop-color="#252F8B"/>
<stop offset="0.57" stop-color="#2C3B9B"/>
<stop offset="0.71" stop-color="#364DB1"/>
<stop offset="0.85" stop-color="#4363CE"/>
<stop offset="0.98" stop-color="#527EF2"/>
<stop offset="1" stop-color="#5684F9"/>
</linearGradient>
<linearGradient id="paint11_linear_0_1603" x1="281.318" y1="55.1558" x2="314.457" y2="50.9293" gradientUnits="userSpaceOnUse">
<stop stop-color="#F1CFBA"/>
<stop offset="1" stop-color="#D388A1"/>
</linearGradient>
<linearGradient id="paint12_linear_0_1603" x1="289.973" y1="54.0541" x2="316.077" y2="50.7274" gradientUnits="userSpaceOnUse">
<stop stop-color="#F1CFBA"/>
<stop offset="1" stop-color="#D388A1"/>
</linearGradient>
<linearGradient id="paint13_linear_0_1603" x1="289.101" y1="63.5155" x2="299.585" y2="62.1707" gradientUnits="userSpaceOnUse">
<stop stop-color="#F1CFBA"/>
<stop offset="1" stop-color="#D388A1"/>
</linearGradient>
<linearGradient id="paint14_linear_0_1603" x1="279.589" y1="41.5908" x2="312.729" y2="37.3643" gradientUnits="userSpaceOnUse">
<stop stop-color="#F1CFBA"/>
<stop offset="1" stop-color="#D388A1"/>
</linearGradient>
<linearGradient id="paint15_linear_0_1603" x1="281.602" y1="41.3279" x2="312.599" y2="37.3844" gradientUnits="userSpaceOnUse">
<stop stop-color="#F1CFBA"/>
<stop offset="1" stop-color="#D388A1"/>
</linearGradient>
<linearGradient id="paint16_linear_0_1603" x1="312.595" y1="38.1137" x2="317.165" y2="38.1137" gradientUnits="userSpaceOnUse">
<stop stop-color="#F1CFBA"/>
<stop offset="1" stop-color="#D388A1"/>
</linearGradient>
<linearGradient id="paint17_linear_0_1603" x1="398.297" y1="563.075" x2="445.631" y2="563.075" gradientUnits="userSpaceOnUse">
<stop stop-color="#FF6984"/>
<stop offset="1" stop-color="#252D4D"/>
</linearGradient>
<linearGradient id="paint18_linear_0_1603" x1="397.609" y1="446.002" x2="444.63" y2="446.002" gradientUnits="userSpaceOnUse">
<stop stop-color="#FF6984"/>
<stop offset="1" stop-color="#252D4D"/>
</linearGradient>
<linearGradient id="paint19_linear_0_1603" x1="281.833" y1="489.811" x2="298.16" y2="489.811" gradientUnits="userSpaceOnUse">
<stop stop-color="#FF6984"/>
<stop offset="1" stop-color="#252D4D"/>
</linearGradient>
<linearGradient id="paint20_linear_0_1603" x1="253.817" y1="470.312" x2="451.245" y2="353.191" gradientUnits="userSpaceOnUse">
<stop stop-color="#FF6984"/>
<stop offset="1" stop-color="#252D4D"/>
</linearGradient>
<linearGradient id="paint21_linear_0_1603" x1="359.011" y1="291.407" x2="425.584" y2="291.407" gradientUnits="userSpaceOnUse">
<stop stop-color="#FED1BC"/>
<stop offset="1" stop-color="#EB8AA4"/>
</linearGradient>
<linearGradient id="paint22_linear_0_1603" x1="418.024" y1="225.219" x2="384.884" y2="225.219" gradientUnits="userSpaceOnUse">
<stop stop-color="#FED1BC"/>
<stop offset="1" stop-color="#EB8AA4"/>
</linearGradient>
<linearGradient id="paint23_linear_0_1603" x1="384.886" y1="224.32" x2="414.619" y2="224.32" gradientUnits="userSpaceOnUse">
<stop stop-color="#FED1BC"/>
<stop offset="1" stop-color="#EB8AA4"/>
</linearGradient>
<linearGradient id="paint24_linear_0_1603" x1="406.186" y1="237.723" x2="416.832" y2="237.723" gradientUnits="userSpaceOnUse">
<stop stop-color="#FED1BC"/>
<stop offset="1" stop-color="#EB8AA4"/>
</linearGradient>
<linearGradient id="paint25_linear_0_1603" x1="433.081" y1="215.728" x2="400.74" y2="215.728" gradientUnits="userSpaceOnUse">
<stop stop-color="#FED1BC"/>
<stop offset="1" stop-color="#EB8AA4"/>
</linearGradient>
<linearGradient id="paint26_linear_0_1603" x1="400.752" y1="215.718" x2="431.415" y2="215.718" gradientUnits="userSpaceOnUse">
<stop stop-color="#FED1BC"/>
<stop offset="1" stop-color="#EB8AA4"/>
</linearGradient>
<linearGradient id="paint27_linear_0_1603" x1="396.713" y1="211.371" x2="401.11" y2="211.371" gradientUnits="userSpaceOnUse">
<stop stop-color="#FED1BC"/>
<stop offset="1" stop-color="#EB8AA4"/>
</linearGradient>
<linearGradient id="paint28_linear_0_1603" x1="416.2" y1="310.34" x2="453.97" y2="310.34" gradientUnits="userSpaceOnUse">
<stop offset="0.57" stop-color="#172182"/>
<stop offset="0.63" stop-color="#182688"/>
<stop offset="0.72" stop-color="#1D369B"/>
<stop offset="0.82" stop-color="#244FBB"/>
<stop offset="0.94" stop-color="#2E72E6"/>
<stop offset="1" stop-color="#3486FE"/>
</linearGradient>
<linearGradient id="paint29_linear_0_1603" x1="420.498" y1="280.45" x2="499.901" y2="280.45" gradientUnits="userSpaceOnUse">
<stop offset="0.57" stop-color="#172182"/>
<stop offset="0.63" stop-color="#182688"/>
<stop offset="0.72" stop-color="#1D369B"/>
<stop offset="0.82" stop-color="#244FBB"/>
<stop offset="0.94" stop-color="#2E72E6"/>
<stop offset="1" stop-color="#3486FE"/>
</linearGradient>
<linearGradient id="paint30_linear_0_1603" x1="489.649" y1="284.19" x2="518.371" y2="284.19" gradientUnits="userSpaceOnUse">
<stop stop-color="#FED1BC"/>
<stop offset="1" stop-color="#EB8AA4"/>
</linearGradient>
<linearGradient id="paint31_linear_0_1603" x1="266.795" y1="315.172" x2="410.405" y2="315.859" gradientUnits="userSpaceOnUse">
<stop offset="0.57" stop-color="#172182"/>
<stop offset="0.63" stop-color="#182688"/>
<stop offset="0.72" stop-color="#1D369B"/>
<stop offset="0.82" stop-color="#244FBB"/>
<stop offset="0.94" stop-color="#2E72E6"/>
<stop offset="1" stop-color="#3486FE"/>
</linearGradient>
<linearGradient id="paint32_linear_0_1603" x1="327.288" y1="304.032" x2="474.942" y2="304.73" gradientUnits="userSpaceOnUse">
<stop offset="0.57" stop-color="#172182"/>
<stop offset="0.63" stop-color="#182688"/>
<stop offset="0.72" stop-color="#1D369B"/>
<stop offset="0.82" stop-color="#244FBB"/>
<stop offset="0.94" stop-color="#2E72E6"/>
<stop offset="1" stop-color="#3486FE"/>
</linearGradient>
<linearGradient id="paint33_linear_0_1603" x1="436.987" y1="362.801" x2="471.664" y2="362.801" gradientUnits="userSpaceOnUse">
<stop stop-color="#FED1BC"/>
<stop offset="1" stop-color="#EB8AA4"/>
</linearGradient>
<linearGradient id="paint34_linear_0_1603" x1="448.716" y1="357.434" x2="462.738" y2="357.434" gradientUnits="userSpaceOnUse">
<stop stop-color="#FED1BC"/>
<stop offset="1" stop-color="#EB8AA4"/>
</linearGradient>
<linearGradient id="paint35_linear_0_1603" x1="448.731" y1="365.146" x2="554.217" y2="365.146" gradientUnits="userSpaceOnUse">
<stop offset="0.57" stop-color="#172182"/>
<stop offset="0.63" stop-color="#182688"/>
<stop offset="0.72" stop-color="#1D369B"/>
<stop offset="0.82" stop-color="#244FBB"/>
<stop offset="0.94" stop-color="#2E72E6"/>
<stop offset="1" stop-color="#3486FE"/>
</linearGradient>
<linearGradient id="paint36_linear_0_1603" x1="471.59" y1="356.262" x2="505.61" y2="356.262" gradientUnits="userSpaceOnUse">
<stop offset="0.57" stop-color="#172182"/>
<stop offset="0.63" stop-color="#182688"/>
<stop offset="0.72" stop-color="#1D369B"/>
<stop offset="0.82" stop-color="#244FBB"/>
<stop offset="0.94" stop-color="#2E72E6"/>
<stop offset="1" stop-color="#3486FE"/>
</linearGradient>
<linearGradient id="paint37_linear_0_1603" x1="501.393" y1="346.204" x2="601.248" y2="346.204" gradientUnits="userSpaceOnUse">
<stop offset="0.57" stop-color="#172182"/>
<stop offset="0.63" stop-color="#182688"/>
<stop offset="0.72" stop-color="#1D369B"/>
<stop offset="0.82" stop-color="#244FBB"/>
<stop offset="0.94" stop-color="#2E72E6"/>
<stop offset="1" stop-color="#3486FE"/>
</linearGradient>
<linearGradient id="paint38_linear_0_1603" x1="619.354" y1="221.752" x2="522.698" y2="401.478" gradientUnits="userSpaceOnUse">
<stop offset="0.57" stop-color="#172182"/>
<stop offset="0.63" stop-color="#182688"/>
<stop offset="0.72" stop-color="#1D369B"/>
<stop offset="0.82" stop-color="#244FBB"/>
<stop offset="0.94" stop-color="#2E72E6"/>
<stop offset="1" stop-color="#3486FE"/>
</linearGradient>
<linearGradient id="paint39_linear_0_1603" x1="427.93" y1="101.263" x2="456.017" y2="133.52" gradientUnits="userSpaceOnUse">
<stop stop-color="#41D1FF"/>
<stop offset="1" stop-color="#BD34FE"/>
</linearGradient>
<linearGradient id="paint40_linear_0_1603" x1="431.305" y1="106.611" x2="449.285" y2="131.022" gradientUnits="userSpaceOnUse">
<stop stop-color="#FFEA83"/>
<stop offset="0.08" stop-color="#FFDD35"/>
<stop offset="1" stop-color="#FFA800"/>
</linearGradient>
<linearGradient id="paint41_linear_0_1603" x1="532.113" y1="121.245" x2="524.475" y2="132.563" gradientUnits="userSpaceOnUse">
<stop stop-color="#52CE63"/>
<stop offset="1" stop-color="#51A256"/>
</linearGradient>
<linearGradient id="paint42_linear_0_1603" x1="557.776" y1="148.277" x2="546.458" y2="140.637" gradientUnits="userSpaceOnUse">
<stop stop-color="#52CE63"/>
<stop offset="1" stop-color="#51A256"/>
</linearGradient>
<linearGradient id="paint43_linear_0_1603" x1="547.107" y1="111.846" x2="538.609" y2="130.893" gradientUnits="userSpaceOnUse">
<stop stop-color="#8AE99C"/>
<stop offset="1" stop-color="#52CE63"/>
</linearGradient>
<linearGradient id="paint44_linear_0_1603" x1="533.328" y1="141.993" x2="515.325" y2="183.817" gradientUnits="userSpaceOnUse">
<stop stop-color="#FFE56C"/>
<stop offset="1" stop-color="#FFC63A"/>
</linearGradient>
<linearGradient id="paint45_linear_0_1603" x1="129.173" y1="297.005" x2="400.712" y2="297.722" gradientUnits="userSpaceOnUse">
<stop stop-color="#172182"/>
<stop offset="0.14" stop-color="#182688"/>
<stop offset="0.35" stop-color="#1D369B"/>
<stop offset="0.59" stop-color="#244FBB"/>
<stop offset="0.87" stop-color="#2E72E6"/>
<stop offset="1" stop-color="#3486FE"/>
</linearGradient>
<linearGradient id="paint46_linear_0_1603" x1="103.12" y1="358.877" x2="-21.2205" y2="357.805" gradientUnits="userSpaceOnUse">
<stop stop-color="#172182"/>
<stop offset="0.14" stop-color="#182688"/>
<stop offset="0.35" stop-color="#1D369B"/>
<stop offset="0.59" stop-color="#244FBB"/>
<stop offset="0.87" stop-color="#2E72E6"/>
<stop offset="1" stop-color="#3486FE"/>
</linearGradient>
<linearGradient id="paint47_linear_0_1603" x1="49.5763" y1="342.713" x2="77.6917" y2="342.713" gradientUnits="userSpaceOnUse">
<stop stop-color="#FED1BC"/>
<stop offset="1" stop-color="#EB8AA4"/>
</linearGradient>
<linearGradient id="paint48_linear_0_1603" x1="158.482" y1="319.778" x2="193.917" y2="319.778" gradientUnits="userSpaceOnUse">
<stop stop-color="#FED1BC"/>
<stop offset="1" stop-color="#EB8AA4"/>
</linearGradient>
<linearGradient id="paint49_linear_0_1603" x1="164.649" y1="319.788" x2="193.917" y2="319.788" gradientUnits="userSpaceOnUse">
<stop stop-color="#FED1BC"/>
<stop offset="1" stop-color="#EB8AA4"/>
</linearGradient>
<linearGradient id="paint50_linear_0_1603" x1="149.477" y1="320.374" x2="258.441" y2="320.374" gradientUnits="userSpaceOnUse">
<stop stop-color="#FF6984"/>
<stop offset="1" stop-color="#252D4D"/>
</linearGradient>
<linearGradient id="paint51_linear_0_1603" x1="101.151" y1="285.46" x2="120.188" y2="285.46" gradientUnits="userSpaceOnUse">
<stop stop-color="#FED1BC"/>
<stop offset="1" stop-color="#EB8AA4"/>
</linearGradient>
<linearGradient id="paint52_linear_0_1603" x1="158.687" y1="497.389" x2="206.759" y2="497.389" gradientUnits="userSpaceOnUse">
<stop stop-color="#FED1BC"/>
<stop offset="1" stop-color="#EB8AA4"/>
</linearGradient>
<linearGradient id="paint53_linear_0_1603" x1="167.603" y1="526.642" x2="203.534" y2="526.642" gradientUnits="userSpaceOnUse">
<stop stop-color="#FED1BC"/>
<stop offset="1" stop-color="#EB8AA4"/>
</linearGradient>
<linearGradient id="paint54_linear_0_1603" x1="124.411" y1="479.406" x2="214.004" y2="479.406" gradientUnits="userSpaceOnUse">
<stop stop-color="#FED1BC"/>
<stop offset="1" stop-color="#EB8AA4"/>
</linearGradient>
<linearGradient id="paint55_linear_0_1603" x1="138.787" y1="479.406" x2="214.004" y2="479.406" gradientUnits="userSpaceOnUse">
<stop stop-color="#FED1BC"/>
<stop offset="1" stop-color="#EB8AA4"/>
</linearGradient>
<linearGradient id="paint56_linear_0_1603" x1="152.132" y1="300.098" x2="168.459" y2="300.098" gradientUnits="userSpaceOnUse">
<stop stop-color="#FED1BC"/>
<stop offset="1" stop-color="#EB8AA4"/>
</linearGradient>
<linearGradient id="paint57_linear_0_1603" x1="161.212" y1="297.914" x2="164.407" y2="297.914" gradientUnits="userSpaceOnUse">
<stop stop-color="#FED1BC"/>
<stop offset="1" stop-color="#EB8AA4"/>
</linearGradient>
<linearGradient id="paint58_linear_0_1603" x1="152.365" y1="300.078" x2="168.46" y2="300.078" gradientUnits="userSpaceOnUse">
<stop stop-color="#FED1BC"/>
<stop offset="1" stop-color="#EB8AA4"/>
</linearGradient>
<linearGradient id="paint59_linear_0_1603" x1="38.8205" y1="293.84" x2="110.951" y2="212.508" gradientUnits="userSpaceOnUse">
<stop stop-color="#172182"/>
<stop offset="0.14" stop-color="#182688"/>
<stop offset="0.35" stop-color="#1D369B"/>
<stop offset="0.59" stop-color="#244FBB"/>
<stop offset="0.87" stop-color="#2E72E6"/>
<stop offset="1" stop-color="#3486FE"/>
</linearGradient>
</defs>
</svg>
